# Blender v2.79 (sub 0) OBJ File: 'Helicopter.blend'
# www.blender.org
mtllib Helicopter.mtl
o Cube.007_Cube.010
v 0.720926 -0.233875 1.112781
v 0.720926 -0.447201 1.112781
v 0.720926 -0.233875 -0.228331
v 0.720926 -0.447201 -0.228331
v 0.428011 -0.233875 1.112781
v 0.428011 -0.447201 1.112781
v 0.428011 -0.233875 -0.228331
v 0.428011 -0.447201 -0.228331
v 0.067208 -0.233875 1.112781
v 0.067208 -0.447201 1.112781
v 0.067208 -0.233875 -0.228331
v 0.067208 -0.447201 -0.228331
v -0.225707 -0.233875 1.112781
v -0.225707 -0.447201 1.112781
v -0.225707 -0.233875 -0.228331
v -0.225707 -0.447201 -0.228331
v -0.346994 0.956014 0.475181
v -0.346994 0.985325 0.475181
v -0.346994 0.956014 0.355448
v -0.346994 0.985325 0.355448
v 0.229415 0.956014 0.475181
v 0.229415 0.985325 0.475181
v 0.229415 0.956014 0.355448
v 0.229415 0.985325 0.355448
v 0.228237 0.973172 1.056643
v 0.228237 1.002482 1.056643
v 0.108504 0.973172 1.056643
v 0.108504 1.002482 1.056643
v 0.228237 0.973172 0.480234
v 0.228237 1.002482 0.480234
v 0.108504 0.973172 0.480234
v 0.108504 1.002482 0.480234
v 0.356687 0.973171 0.474786
v 0.356687 1.002481 0.474786
v 0.236954 0.973171 0.474786
v 0.236954 1.002481 0.474786
v 0.356687 0.973171 -0.101623
v 0.356687 1.002481 -0.101623
v 0.236954 0.973171 -0.101623
v 0.236954 1.002481 -0.101623
v 0.237833 0.968269 0.601291
v 0.237833 0.997579 0.601291
v 0.237833 0.968269 0.481558
v 0.237833 0.997579 0.481558
v 0.814242 0.968269 0.601291
v 0.814242 0.997579 0.601291
v 0.814242 0.968269 0.481558
v 0.814242 0.997579 0.481558
v 0.078166 0.419084 -1.175185
v 0.078166 0.365863 -1.216164
v 0.078166 0.686228 -1.522138
v 0.078166 0.633007 -1.563117
v 0.132988 0.419084 -1.175185
v 0.132988 0.365863 -1.216164
v 0.132988 0.686228 -1.522138
v 0.132988 0.633007 -1.563117
v 0.167176 0.262492 0.431609
v 0.167176 0.444544 0.431609
v 0.167176 0.262492 -1.490111
v 0.167176 0.444544 -1.490111
v 0.343689 0.262492 0.431609
v 0.343689 0.444544 0.431609
v 0.343689 0.262492 -1.490111
v 0.343689 0.444544 -1.490111
v 0.167638 0.442837 -1.489846
v 0.167638 0.624889 -1.489846
v 0.167638 0.442837 -1.257914
v 0.167638 0.624889 -1.257914
v 0.344151 0.442837 -1.489846
v 0.344151 0.624889 -1.489846
v 0.344151 0.442837 -1.257914
v 0.344151 0.624889 -1.257914
v 0.724717 -0.124470 -0.002563
v 0.724717 -0.124470 0.954706
v -0.232553 -0.124470 0.954706
v -0.232552 -0.124470 -0.002563
v 0.724717 0.832799 -0.002563
v 0.724716 0.832799 0.954707
v -0.232553 0.832799 0.954706
v -0.232553 0.832799 -0.002563
vn 1.0000 0.0000 0.0000
vn 0.0000 0.0000 -1.0000
vn -1.0000 0.0000 0.0000
vn 0.0000 0.0000 1.0000
vn 0.0000 1.0000 0.0000
vn 0.0000 -1.0000 0.0000
vn 0.0000 -0.6101 0.7923
vn 0.0000 0.6101 -0.7923
vn 0.0000 -0.7923 -0.6101
vn 0.0000 0.7923 0.6101
usemtl Material.003
s off
f 1//1 2//1 4//1 3//1
f 3//2 4//2 8//2 7//2
f 7//3 8//3 6//3 5//3
f 5//4 6//4 2//4 1//4
f 3//5 7//5 5//5 1//5
f 8//6 4//6 2//6 6//6
f 9//1 10//1 12//1 11//1
f 11//2 12//2 16//2 15//2
f 15//3 16//3 14//3 13//3
f 13//4 14//4 10//4 9//4
f 11//5 15//5 13//5 9//5
f 16//6 12//6 10//6 14//6
usemtl Material.001
f 17//3 18//3 20//3 19//3
f 19//2 20//2 24//2 23//2
f 23//1 24//1 22//1 21//1
f 21//4 22//4 18//4 17//4
f 19//6 23//6 21//6 17//6
f 24//5 20//5 18//5 22//5
f 25//4 26//4 28//4 27//4
f 27//3 28//3 32//3 31//3
f 31//2 32//2 30//2 29//2
f 29//1 30//1 26//1 25//1
f 27//6 31//6 29//6 25//6
f 32//5 28//5 26//5 30//5
f 33//4 34//4 36//4 35//4
f 35//3 36//3 40//3 39//3
f 39//2 40//2 38//2 37//2
f 37//1 38//1 34//1 33//1
f 35//6 39//6 37//6 33//6
f 40//5 36//5 34//5 38//5
f 41//3 42//3 44//3 43//3
f 43//2 44//2 48//2 47//2
f 47//1 48//1 46//1 45//1
f 45//4 46//4 42//4 41//4
f 43//6 47//6 45//6 41//6
f 48//5 44//5 42//5 46//5
f 49//1 50//1 52//1 51//1
f 51//7 52//7 56//7 55//7
f 55//3 56//3 54//3 53//3
f 53//8 54//8 50//8 49//8
f 51//9 55//9 53//9 49//9
f 56//10 52//10 50//10 54//10
usemtl Material.002
f 57//3 58//3 60//3 59//3
f 59//2 60//2 64//2 63//2
f 63//1 64//1 62//1 61//1
f 61//4 62//4 58//4 57//4
f 59//6 63//6 61//6 57//6
f 64//5 60//5 58//5 62//5
f 65//1 66//1 68//1 67//1
f 67//2 68//2 72//2 71//2
f 71//3 72//3 70//3 69//3
f 69//4 70//4 66//4 65//4
f 67//5 71//5 69//5 65//5
f 72//6 68//6 66//6 70//6
usemtl Material
f 73//6 74//6 75//6 76//6
f 77//5 80//5 79//5 78//5
f 73//1 77//1 78//1 74//1
f 74//4 78//4 79//4 75//4
f 75//3 79//3 80//3 76//3
f 77//2 73//2 76//2 80//2
